PathFileType	4	(X/Y/Z)	/Users/itak/Documents/Research/Walk-IL/dataset/trc/00176_00008.trc
DataRate	CameraRate	NumFrames	NumMarkers	Units	OrigDataRate	OrigDataStartFrame	OrigNumFrames
100.000000	100.000000	4	53	mm	100.000000	309	619
Frame#	Time	RPSI			LPSI			L3			STRN			T10			C7			CLAV			RBAK			LBAK			LSHO			LUPA			LAEL			LAOL			LWTS			LWPS			LFRA			LIFD			LHPS			LHTS			RSHO			RUPA			RAEL			RAOL			RWTS			RWPS			RFRA			RIFD			RHTS			RHPS			RBHD			LFHD			RFHD			LBHD			LHIP			RHIP			RASI			LASI			LKNE			LTHI			LANK			LTIP			LTOE			LMT1			LMT5			LHEE			RKNE			RTHI			RANK			RTIP			RTOE			RMT1			RMT5			RHEE			
		X1	Y1	Z1	X2	Y2	Z2	X3	Y3	Z3	X4	Y4	Z4	X5	Y5	Z5	X6	Y6	Z6	X7	Y7	Z7	X8	Y8	Z8	X9	Y9	Z9	X10	Y10	Z10	X11	Y11	Z11	X12	Y12	Z12	X13	Y13	Z13	X14	Y14	Z14	X15	Y15	Z15	X16	Y16	Z16	X17	Y17	Z17	X18	Y18	Z18	X19	Y19	Z19	X20	Y20	Z20	X21	Y21	Z21	X22	Y22	Z22	X23	Y23	Z23	X24	Y24	Z24	X25	Y25	Z25	X26	Y26	Z26	X27	Y27	Z27	X28	Y28	Z28	X29	Y29	Z29	X30	Y30	Z30	X31	Y31	Z31	X32	Y32	Z32	X33	Y33	Z33	X34	Y34	Z34	X35	Y35	Z35	X36	Y36	Z36	X37	Y37	Z37	X38	Y38	Z38	X39	Y39	Z39	X40	Y40	Z40	X41	Y41	Z41	X42	Y42	Z42	X43	Y43	Z43	X44	Y44	Z44	X45	Y45	Z45	X46	Y46	Z46	X47	Y47	Z47	X48	Y48	Z48	X49	Y49	Z49	X50	Y50	Z50	X51	Y51	Z51	X52	Y52	Z52	X53	Y53	Z53	

310	3.09	12.65309524536133	1044.451538085938	355.8914794921875	9.296194076538086	1043.482055664062	233.2111206054688	15.64778709411621	1083.288452148438	298.0594482421875	294.8190307617188	1274.560424804688	277.7076721191406	-2.479837656021118	1243.795776367188	295.872314453125	80.21113586425781	1507.241943359375	272.5857543945312	274.2660522460938	1389.924926757812	265.9277648925781	10.579421043396	1340.8359375	393.1138000488281	64.94961547851562	1480.249633789062	173.3194580078125	135.1608428955078	1458.890747070312	90.71205139160156	85.38425445556641	1328.955322265625	25.79813957214355	75.23267364501953	1115.356079101562	8.518486022949219	44.84685134887695	1100.1220703125	91.07134246826172	176.7884063720703	876.5259399414062	14.68481922149658	87.40288543701172	860.0390014648438	-7.572237968444824	79.34941864013672	1004.313354492188	-8.385344505310059	188.775634765625	689.561279296875	27.88980102539062	106.2192001342773	789.27197265625	-8.96368408203125	179.5905303955078	798.1502075195312	-8.220407485961914	155.8250732421875	1488.513305664062	449.5283203125	141.9715270996094	1424.567749023438	524.4295654296875	146.7021636962891	1134.867431640625	590.6644287109375	127.2192230224609	1123.367797851562	496.1840209960938	306.8326416015625	926.0564575195312	549.899658203125	243.2062072753906	899.215576171875	605.3797607421875	181.1540374755859	1064.647583007812	604.5641479492188	344.9330444335938	744.4557495117188	520.50439453125	347.6739501953125	837.8578491210938	554.0264282226562	281.4964599609375	821.0258178710938	597.42333984375	140.7361450195312	1662.771850585938	330.6019287109375	261.8502197265625	1704.4287109375	153.9647369384766	292.0511169433594	1733.00634765625	276.28466796875	99.24716949462891	1640.879516601562	198.8334655761719	106.927360534668	976.7793579101562	108.2263641357422	165.4737854003906	993.7301635742188	478.4353332519531	246.3161010742188	1016.485595703125	423.4645080566406	232.1292877197266	1010.295227050781	164.2159423828125	319.0114440917969	513.7284545898438	122.8688812255859	250.4621887207031	639.34765625	99.87389373779297	384.2284851074219	39.9691047668457	104.2375259399414	352.8556823730469	284.799560546875	100.7329483032227	587.44921875	117.0193939208984	107.9759902954102	546.9050903320312	99.96263885498047	159.607177734375	486.1294555664062	64.43479919433594	56.71638870239258	341.6202392578125	28.45087814331055	177.8110809326172	146.4942932128906	486.8218688964844	440.0923461914062	203.2055511474609	757.374267578125	478.9793701171875	-93.55294799804688	46.90004730224609	416.7525329589844	121.0656585693359	362.5964050292969	421.2987976074219	131.1209564208984	44.15776443481445	405.8774719238281	81.45762634277344	41.28715133666992	356.4330444335938	13.01307201385498	32.31979370117188	465.982421875	-138.8873443603516	56.59584426879883	344.0845642089844	
311	3.1	3.937833309173584	1044.484619140625	357.8290405273438	0.5942029356956482	1043.78857421875	235.04931640625	6.912639617919922	1083.56884765625	299.8529052734375	286.5031127929688	1274.679321289062	279.6550903320312	-10.88089847564697	1244.100952148438	297.1937866210938	72.07972717285156	1507.44091796875	274.0035705566406	266.087646484375	1390.078735351562	267.7293395996094	2.000616550445557	1341.15234375	394.4332885742188	57.02656173706055	1480.520385742188	174.7148284912109	127.275993347168	1459.097412109375	92.20024871826172	77.45746612548828	1329.033569335938	27.41207504272461	66.64644622802734	1115.205444335938	11.72700500488281	36.84428787231445	1100.534790039062	94.58998107910156	167.3757934570312	875.9935913085938	18.4251823425293	77.73917388916016	859.7186889648438	-3.053637981414795	70.23723602294922	1004.057189941406	-4.569356918334961	178.6569519042969	688.9973754882812	32.90205001831055	96.24375915527344	788.8388061523438	-4.051005363464355	169.6726684570312	797.3788452148438	-3.901330709457397	147.2601318359375	1488.738037109375	451.0558776855469	133.3117980957031	1424.911254882812	526.02880859375	139.0099029541016	1135.23974609375	592.780029296875	119.3578338623047	1123.573486328125	498.3602905273438	300.792724609375	927.7877807617188	551.5841674804688	237.4856719970703	900.2896118164062	607.1408081054688	173.9589538574219	1065.188110351562	606.5972900390625	340.4937133789062	746.5790405273438	521.9096069335938	342.453369140625	839.9749755859375	555.5499877929688	276.5405578613281	822.4860229492188	599.032958984375	133.1609039306641	1662.82470703125	332.6209411621094	254.7132720947266	1704.8173828125	156.5898590087891	284.8349609375	1732.565673828125	279.125732421875	91.77847290039062	1641.707763671875	200.9193572998047	98.21835327148438	976.9320068359375	110.2543411254883	156.4702911376953	993.6793212890625	480.5321350097656	237.28466796875	1016.637023925781	425.4972229003906	223.3500518798828	1010.434692382812	166.25341796875	311.6725158691406	514.5232543945312	123.8116912841797	241.9952697753906	639.6362915039062	100.6860580444336	376.987548828125	40.24399566650391	105.6210403442383	345.322509765625	285.4315490722656	101.5997924804688	579.88916015625	118.2888641357422	106.9452667236328	539.8724365234375	101.1738433837891	159.1004638671875	478.3146057128906	65.06034088134766	56.88113021850586	335.1983947753906	28.87670516967773	179.6100921630859	140.7170562744141	486.7127075195312	440.1123657226562	195.6260986328125	757.33935546875	480.2852783203125	-94.02494812011719	45.42678070068359	415.7543029785156	117.0894622802734	362.2841491699219	420.4737243652344	131.1011505126953	44.12495422363281	405.6669616699219	81.40982818603516	40.71688079833984	355.736083984375	12.77907371520996	32.70369338989258	465.3037719726562	-139.2625732421875	53.39818572998047	343.0381469726562	
312	3.11	-4.583166122436523	1044.542602539062	359.7515258789062	-8.01082706451416	1044.150268554688	236.8651580810547	-1.664859175682068	1083.901611328125	301.6390686035156	278.2883605957031	1274.835693359375	281.517578125	-19.21763038635254	1244.424926757812	298.4338073730469	63.98281478881836	1507.68115234375	275.282470703125	257.9671020507812	1390.246826171875	269.4375305175781	-6.534622669219971	1341.4658203125	395.6155700683594	49.16009902954102	1480.775512695312	175.9636993408203	119.4536972045898	1459.270263671875	93.55477142333984	69.63654327392578	1329.08544921875	28.84894371032715	58.15169143676758	1115.013549804688	14.67372989654541	28.84611511230469	1100.905517578125	97.81365203857422	158.1118011474609	875.464111328125	22.03199195861816	68.24322509765625	859.3613891601562	1.282744884490967	61.23294448852539	1003.725158691406	-0.9708555936813354	168.7516937255859	688.4669189453125	37.91733169555664	86.46908569335938	788.3740234375	0.7444243431091309	159.936767578125	796.5995483398438	0.3376975059509277	138.7321624755859	1488.99462890625	452.4818420410156	124.6329040527344	1425.260864257812	527.493896484375	131.2043304443359	1135.63623046875	594.80810546875	111.3995132446289	1123.781982421875	500.4301452636719	294.5160522460938	929.471923828125	553.2066040039062	231.5416412353516	901.374755859375	608.8657836914062	166.6191558837891	1065.74658203125	608.5543212890625	335.7273254394531	748.652587890625	523.31884765625	336.9488525390625	842.0455932617188	557.0321044921875	271.3254699707031	823.9464721679688	600.633056640625	125.4849395751953	1662.905639648438	334.4580993652344	247.6226043701172	1705.314697265625	159.1769714355469	277.5308532714844	1732.172973632812	281.9843444824219	84.33151245117188	1642.601440429688	202.8066101074219	89.53011322021484	977.2657470703125	112.1550674438477	147.7070465087891	993.5547485351562	482.5399475097656	228.5088043212891	1016.690185546875	427.4034118652344	214.7091674804688	1010.673583984375	168.1951751708984	304.8272705078125	515.4426879882812	124.6134033203125	234.1260986328125	640.22607421875	101.2954406738281	368.25537109375	40.50510787963867	107.1601791381836	337.3871459960938	286.0262756347656	102.5110321044922	571.1966552734375	118.5100631713867	106.0027389526367	531.6903076171875	101.5969009399414	158.6655731201172	469.0984802246094	65.18258666992188	57.17860412597656	327.2552185058594	29.52605628967285	181.5815887451172	135.1138000488281	486.6487121582031	439.9157409667969	188.3255767822266	757.2698364257812	481.3199157714844	-94.45462036132812	44.19110488891602	414.7891845703125	113.197380065918	362.063232421875	419.5130310058594	131.0696258544922	44.10781097412109	405.47119140625	81.38336181640625	40.16951751708984	355.0517578125	12.59476852416992	33.17780303955078	464.5698547363281	-139.5787658691406	50.44682693481445	342.0006408691406	
313	3.12	-12.94675636291504	1044.6650390625	361.6304321289062	-16.54177093505859	1044.55712890625	238.6493530273438	-10.11325263977051	1084.285522460938	303.4013671875	270.1669311523438	1275.0302734375	283.2889404296875	-27.50617218017578	1244.804321289062	299.6219177246094	55.94583892822266	1507.98681640625	276.4404907226562	249.9131317138672	1390.436889648438	271.0558471679688	-15.00148010253906	1341.813354492188	396.6963806152344	41.36342620849609	1481.037963867188	177.0866394042969	111.7044677734375	1459.412231445312	94.78833770751953	61.92151641845703	1329.107299804688	30.15281867980957	49.77942657470703	1114.785034179688	17.35854530334473	20.85431480407715	1101.230102539062	100.7233123779297	149.0089874267578	874.941650390625	25.50800132751465	58.94432067871094	858.9857177734375	5.379736423492432	52.37243270874023	1003.329040527344	2.38644814491272	159.0523223876953	687.97265625	42.88523864746094	76.92067718505859	787.8955688476562	5.34904670715332	150.4045257568359	795.8267822265625	4.474711894989014	130.2783203125	1489.30078125	453.8228149414062	115.9795532226562	1425.632446289062	528.8424682617188	123.2753829956055	1136.060546875	596.7363891601562	103.3549957275391	1124.00732421875	502.3796691894531	287.9875793457031	931.099609375	554.7792358398438	225.3381958007812	902.4557495117188	610.5389404296875	159.1157531738281	1066.3203125	610.4265747070312	330.6404418945312	750.6732177734375	524.742919921875	331.1430969238281	844.0621337890625	558.49609375	265.8044128417969	825.3900146484375	602.2138671875	117.7282104492188	1663.013671875	336.1504821777344	240.5637969970703	1705.922607421875	161.7084197998047	270.1284790039062	1731.848876953125	284.8402709960938	76.906494140625	1643.550659179688	204.5049591064453	80.85298919677734	977.7584228515625	113.9141082763672	139.1678314208984	993.4420776367188	484.419677734375	219.975830078125	1016.701477050781	429.16064453125	206.1836090087891	1011.035522460938	170.0087585449219	298.4479675292969	516.4795532226562	125.2625961303711	226.8797302246094	641.1469116210938	101.7595367431641	357.9870910644531	40.75780487060547	108.8289794921875	328.968994140625	286.5773315429688	103.4575805664062	561.3126220703125	117.7265625	105.2432708740234	522.2770385742188	101.2538986206055	158.3753662109375	458.4557495117188	64.82099914550781	57.64839553833008	317.7300109863281	30.34982299804688	183.6885528564453	129.7082366943359	486.7014465332031	439.5960083007812	181.2896423339844	757.2667236328125	482.13134765625	-94.84391021728516	43.18739700317383	413.9154052734375	109.4015731811523	361.9913024902344	418.5273132324219	131.0120544433594	44.10702133178711	405.2988586425781	81.36050415039062	39.66901779174805	354.4148254394531	12.45196533203125	33.69758224487305	463.8310546875	-139.8357849121094	47.82094573974609	341.0299682617188	
